<?xml version="1.0" encoding="UTF-8" standalone="no"?>
<svg
   xmlns:dc="http://purl.org/dc/elements/1.1/"
   xmlns:cc="http://creativecommons.org/ns#"
   xmlns:rdf="http://www.w3.org/1999/02/22-rdf-syntax-ns#"
   xmlns:svg="http://www.w3.org/2000/svg"
   xmlns="http://www.w3.org/2000/svg"
   xmlns:sodipodi="http://sodipodi.sourceforge.net/DTD/sodipodi-0.dtd"
   xmlns:inkscape="http://www.inkscape.org/namespaces/inkscape"
   height="48"
   viewBox="0 96 960 960"
   width="48"
   version="1.1"
   id="svg4"
   sodipodi:docname="bluetooth.svg"
   inkscape:version="0.92.1 r15371">
  <metadata
     id="metadata10">
    <rdf:RDF>
      <cc:Work
         rdf:about="">
        <dc:format>image/svg+xml</dc:format>
        <dc:type
           rdf:resource="http://purl.org/dc/dcmitype/StillImage" />
      </cc:Work>
    </rdf:RDF>
  </metadata>
  <defs
     id="defs8" />
  <sodipodi:namedview
     pagecolor="#ffffff"
     bordercolor="#666666"
     borderopacity="1"
     objecttolerance="10"
     gridtolerance="10"
     guidetolerance="10"
     inkscape:pageopacity="0"
     inkscape:pageshadow="2"
     inkscape:window-width="1920"
     inkscape:window-height="986"
     id="namedview6"
     showgrid="false"
     inkscape:zoom="4.9166667"
     inkscape:cx="24"
     inkscape:cy="24"
     inkscape:window-x="-11"
     inkscape:window-y="3"
     inkscape:window-maximized="1"
     inkscape:current-layer="svg4" />
  <path
     d="M305.825 1056q-12.825 0-21.325-8.68-8.5-8.67-8.5-21.5 0-12.82 8.675-21.32 8.676-8.5 21.5-8.5 12.825 0 21.325 8.68 8.5 8.67 8.5 21.5 0 12.82-8.675 21.32-8.676 8.5-21.5 8.5Zm174 0q-12.825 0-21.325-8.68-8.5-8.67-8.5-21.5 0-12.82 8.675-21.32 8.676-8.5 21.5-8.5 12.825 0 21.325 8.68 8.5 8.67 8.5 21.5 0 12.82-8.675 21.32-8.676 8.5-21.5 8.5Zm170 0q-12.825 0-21.325-8.68-8.5-8.67-8.5-21.5 0-12.82 8.675-21.32 8.676-8.5 21.5-8.5 12.825 0 21.325 8.68 8.5 8.67 8.5 21.5 0 12.82-8.675 21.32-8.676 8.5-21.5 8.5ZM451 882V568L257 762l-42-42 224-224-224-224 42-42 194 194V110h30l214 214-172 172 172 172-214 214h-30Zm60-116 100-98-100-100v198Zm0-342 100-100-100-98v198Z"
     id="path2"
     style="fill:#ffffff" />
</svg>
